<svg width="38" height="13" viewBox="0 0 38 13" fill="none" xmlns="http://www.w3.org/2000/svg">
<path d="M26.04 6.52999C26.0219 5.3532 26.3544 4.19765 26.9951 3.21038C27.6358 2.22312 28.5557 1.44877 29.6378 0.985912C30.7199 0.523052 31.9152 0.392607 33.0716 0.611156C34.2281 0.829706 35.2934 1.38738 36.1319 2.21321C36.9705 3.03903 37.5444 4.09567 37.7806 5.24865C38.0168 6.40164 37.9046 7.59882 37.4583 8.68786C37.0121 9.77691 36.252 10.7086 35.2746 11.3643C34.2973 12.02 33.1469 12.3701 31.9699 12.37C30.4092 12.3817 28.9078 11.7731 27.7957 10.6779C26.6837 9.58273 26.0522 8.09072 26.04 6.52999ZM0.889981 6.52999C0.871923 5.3532 1.20438 4.19765 1.84506 3.21038C2.48574 2.22312 3.40567 1.44877 4.48776 0.985912C5.56985 0.523052 6.76514 0.392607 7.9216 0.611156C9.07806 0.829706 10.1433 1.38738 10.9819 2.21321C11.8205 3.03903 12.3944 4.09567 12.6306 5.24865C12.8668 6.40164 12.7547 7.59882 12.3084 8.68786C11.8622 9.77691 11.102 10.7086 10.1246 11.3643C9.14725 12.02 7.99684 12.3701 6.81991 12.37C5.25918 12.3817 3.75776 11.7731 2.64572 10.6779C1.53368 9.58273 0.902134 8.09072 0.889981 6.52999Z" fill="#00AD78"/>
</svg>
