<svg width="147" height="33" viewBox="0 0 147 33" fill="none" xmlns="http://www.w3.org/2000/svg">
<path fill-rule="evenodd" clip-rule="evenodd" d="M25.4641 1.91731C23.9245 -0.639126 20.0755 -0.639118 18.5359 1.91732L6.10352e-05 32.8342H6.84458L9.50251 32.8342C9.63568 26.3266 15.18 21.0906 22.0001 21.0906C28.8201 21.0906 34.3644 26.3266 34.4976 32.8342L37.1555 32.8342L44.5001 32.8342L25.4641 1.91731Z" fill="#ffffff"/>
<path fill-rule="evenodd" clip-rule="evenodd" d="M76.4641 1.91731C74.9245 -0.639126 71.0755 -0.639118 69.5359 1.91732L51.0001 32.8342H57.8446L60.5025 32.8342C60.6357 26.3266 66.18 21.0906 73.0001 21.0906C79.8201 21.0906 85.3644 26.3266 85.4976 32.8342L88.1555 32.8342L95.5001 32.8342L76.4641 1.91731Z" fill="#ffffff"/>
<path fill-rule="evenodd" clip-rule="evenodd" d="M127.464 1.91731C125.925 -0.639126 122.076 -0.639118 120.536 1.91732L102 32.8342H108.845L111.503 32.8342C111.636 26.3266 117.18 21.0906 124 21.0906C130.82 21.0906 136.364 26.3266 136.498 32.8342L139.155 32.8342L146.5 32.8342L127.464 1.91731Z" fill="#ffffff"/>
</svg>
