<svg width="24" height="24" viewBox="0 0 24 24" fill="none" xmlns="http://www.w3.org/2000/svg">
<path d="M20.0865 3.43301C17.877 1.21816 14.9344 0 11.8072 0C5.35254 0 0.100195 5.25234 0.100195 11.707C0.100195 13.7689 0.638086 15.7834 1.66113 17.5605L0 23.625L6.20684 21.9955C7.91543 22.9289 9.84023 23.4193 11.802 23.4193H11.8072C18.2566 23.4193 23.625 18.167 23.625 11.7123C23.625 8.58516 22.2961 5.64785 20.0865 3.43301ZM11.8072 21.4471C10.0564 21.4471 8.34258 20.9777 6.85019 20.0918L6.49687 19.8809L2.81602 20.8459L3.79688 17.2547L3.56484 16.8855C2.58926 15.3352 2.07773 13.5475 2.07773 11.707C2.07773 6.34395 6.44414 1.97754 11.8125 1.97754C14.4123 1.97754 16.8539 2.99004 18.6891 4.83047C20.5242 6.6709 21.6527 9.1125 21.6475 11.7123C21.6475 17.0807 17.1703 21.4471 11.8072 21.4471ZM17.1439 14.1592C16.8539 14.0115 15.4143 13.3049 15.1453 13.21C14.8764 13.1098 14.6813 13.0623 14.4861 13.3576C14.291 13.6529 13.732 14.3068 13.558 14.5072C13.3893 14.7023 13.2152 14.7287 12.9252 14.5811C11.2061 13.7215 10.0775 13.0465 8.94375 11.1006C8.64316 10.5838 9.24434 10.6207 9.80332 9.50273C9.89824 9.30762 9.85078 9.13887 9.77695 8.99121C9.70312 8.84355 9.11777 7.40391 8.8752 6.81855C8.63789 6.24902 8.39531 6.32812 8.21602 6.31758C8.04727 6.30703 7.85215 6.30703 7.65703 6.30703C7.46191 6.30703 7.14551 6.38086 6.87656 6.6709C6.60762 6.96621 5.85352 7.67285 5.85352 9.1125C5.85352 10.5521 6.90293 11.9443 7.04531 12.1395C7.19297 12.3346 9.10723 15.2877 12.0445 16.5586C13.9008 17.3602 14.6285 17.4287 15.5566 17.2916C16.1209 17.2072 17.2863 16.585 17.5289 15.8994C17.7715 15.2139 17.7715 14.6285 17.6977 14.5072C17.6291 14.3754 17.434 14.3016 17.1439 14.1592Z" fill="white"/>
</svg>
